<svg width="208" height="78" viewBox="0 0 208 78" fill="none" xmlns="http://www.w3.org/2000/svg">
<g clip-path="url(#clip0_393_2)">
<mask id="mask0_393_2" style="mask-type:luminance" maskUnits="userSpaceOnUse" x="0" y="2" width="75" height="75">
<path fill-rule="evenodd" clip-rule="evenodd" d="M0.795898 2.32066L74.9854 2.32066L74.9854 76.5102L0.795898 76.5102L0.795898 2.32066Z" fill="white"/>
</mask>
<g mask="url(#mask0_393_2)">
<path fill-rule="evenodd" clip-rule="evenodd" d="M67.4132 45.2419L64.1369 48.1402L56.3841 47.2465C56.3331 47.7325 56.2624 48.2159 56.1737 48.6981L62.8009 49.8162L60.7149 51.4909L55.8016 50.2938C55.42 51.6637 54.878 52.9976 54.1764 54.2687L58.4261 57.021L58.6965 59.6982L53.3174 55.6676C53.0476 56.069 52.7607 56.4611 52.4547 56.8433L58.5493 61.734L58.7892 66.1254L54.4225 65.8614L49.5755 59.7468C49.1933 60.0572 48.8 60.3496 48.3983 60.6244L52.2924 66.1022L49.6358 65.8118L47.0087 61.4909C45.744 62.2029 44.4135 62.7544 43.0486 63.1488L44.1043 68.1019L42.4049 70.1867L41.4503 63.5343C40.9727 63.6253 40.4922 63.6986 40.0103 63.7537L40.8629 71.5224L37.9237 74.7992L35.0265 71.5236L35.9197 63.7705C35.4343 63.7192 34.9506 63.6482 34.4693 63.5598L33.3497 70.1867L31.6758 68.1004L32.8724 63.1891C31.5023 62.8069 30.168 62.2655 28.8987 61.5625L26.1455 65.8118L23.4683 66.0831L27.4969 60.7052C27.0975 60.4334 26.7049 60.1465 26.3229 59.8419L21.4325 65.9359L17.0391 66.1752L17.3068 61.8091L23.4173 56.9613C23.1075 56.577 22.8151 56.1849 22.5401 55.7841L17.0646 59.679L17.3547 57.021L21.6739 54.3939C20.9621 53.1298 20.4109 51.8004 20.0177 50.4343L15.0652 51.4909L12.9798 49.7904L19.6322 48.8363C19.5392 48.3585 19.4662 47.8768 19.4105 47.3928L11.6447 48.2466L8.36816 45.3077L11.6429 42.412L19.3949 43.3063C19.4465 42.8195 19.5169 42.3337 19.6067 41.8521L12.9795 40.7361L15.0652 39.0619L19.9777 40.2547C20.3611 38.8857 20.9018 37.5508 21.6037 36.2818L17.3547 33.5307L17.0849 30.8523L22.4616 34.8818C22.7325 34.4807 23.0209 34.0883 23.3266 33.7049L17.2303 28.8188L16.9901 24.4251L21.3574 24.6917L26.2058 30.8025C26.5878 30.4921 26.9802 30.2003 27.3813 29.9253L23.4875 24.4497L26.145 24.7401L28.7711 29.0588C30.0361 28.3473 31.3666 27.7949 32.7328 27.4017L31.675 22.4512L33.3755 20.3653L34.3307 27.0165C34.8089 26.9244 35.2894 26.8516 35.7719 26.7966L34.9211 19.0293L37.8573 15.7545L40.7542 19.0272L39.8616 26.7812C40.3467 26.8336 40.8307 26.9026 41.3118 26.9922L42.4298 20.3647L44.1043 22.4512L42.9095 27.3637C44.2788 27.7462 45.6127 28.2885 46.8827 28.9906L49.6349 24.7401L52.3118 24.4689L48.2833 29.8485C48.6841 30.1191 49.0756 30.4069 49.459 30.7112L54.3489 24.6164L58.7431 24.377L58.4736 28.7417L52.362 33.5918C52.6726 33.9747 52.9642 34.3668 53.2398 34.7676L58.7165 30.8729L58.4252 33.531L54.1057 36.1581C54.818 37.4228 55.369 38.7529 55.7628 40.1197L60.7149 39.0601L62.8009 40.7616L56.1477 41.7159C56.2404 42.1946 56.3134 42.676 56.3688 43.1591L64.1369 42.3045L67.4132 45.2419ZM52.173 45.9728C52.173 49.6936 50.5684 52.6388 48.1454 52.6388H37.94V53.621H44.8115V56.7436C44.8112 58.2306 44.3423 60.0013 38.4523 60.001H37.1059C31.216 60.001 30.5778 58.2309 30.5781 56.7436V49.7431C30.5778 47.6589 32.33 45.7679 34.4134 45.7679H42.2215C44.3049 45.7679 45.7925 44.287 45.7928 42.2033L45.7925 37.9148L48.1454 37.9151C50.5684 37.9148 52.173 41.4443 52.173 45.1651L52.173 45.9728ZM29.5962 48.3512V52.6388L27.7348 52.6391C25.3115 52.6391 23.2162 49.1096 23.2162 45.3891V44.5809C23.2162 40.8607 25.3115 37.9151 27.7348 37.9148L37.449 37.9148V36.9336L30.578 36.9336V33.8109C30.578 32.3237 31.5376 30.553 37.4275 30.553H38.7737C44.6639 30.553 44.8114 32.3237 44.8114 33.8109V40.8114C44.8114 42.8954 43.5499 44.7861 41.4665 44.7861H33.6584C31.575 44.7863 29.5962 46.2672 29.5962 48.3512ZM41.8065 58.2242C42.5681 58.2242 43.1862 57.6063 43.1862 56.8439C43.1862 56.0823 42.5678 55.4641 41.8065 55.4644C41.0443 55.4641 40.4264 56.082 40.4264 56.8439C40.4264 57.6069 41.0443 58.2242 41.8065 58.2242ZM32.6937 33.7104C32.6937 32.9482 33.3118 32.33 34.0734 32.33C34.8356 32.33 35.4535 32.9479 35.4535 33.7104C35.4535 34.4723 34.8356 35.0898 34.0734 35.0901C33.3118 35.0898 32.6937 34.4723 32.6937 33.7104Z" fill="#FDD649"/>
<path d="M7.54912 75.6181L8.58342 72.568L6.6571 69.9864L9.87797 70.0276L11.7376 67.3982L12.6937 70.4736L15.7694 71.4299L13.1397 73.2896L13.1809 76.5102L10.5993 74.5838L7.54912 75.6181Z" fill="#FDD649"/>
<path d="M37.713 2.32067L39.1385 5.20914L42.3258 5.67195L40.0193 7.92053L40.5638 11.095L37.713 9.59588L34.8622 11.0947L35.4068 7.92024L33.1002 5.67195L36.2878 5.20914L37.713 2.32067Z" fill="#FDD649"/>
<path d="M68.2322 75.6181L65.182 74.5841L62.6007 76.5102L62.6416 73.2896L60.0122 71.4299L63.0876 70.4739L64.0439 67.3982L65.9036 70.0279L69.1242 69.9867L67.1982 72.568L68.2322 75.6181Z" fill="#FDD649"/>
</g>
<path d="M79.7982 42.3757V20.33H89.2996C90.376 20.33 91.3697 20.5473 92.2805 20.982C93.1913 21.4167 93.9779 22.0067 94.6403 22.7519C95.3027 23.4764 95.8098 24.2941 96.1617 25.2049C96.5344 26.1157 96.7207 27.0368 96.7207 27.9683C96.7207 29.2725 96.4102 30.5041 95.7891 31.6633C95.1888 32.8225 94.3401 33.7748 93.243 34.52C92.1666 35.2445 90.9039 35.6067 89.4549 35.6067H85.8531V42.3757H79.7982ZM85.8531 30.3282H89.0512C89.2996 30.3282 89.5377 30.2557 89.7654 30.1108C89.9931 29.9659 90.1794 29.7175 90.3243 29.3656C90.4899 29.0137 90.5727 28.548 90.5727 27.9683C90.5727 27.3473 90.4795 26.8712 90.2932 26.54C90.1276 26.1881 89.9103 25.9501 89.6412 25.8259C89.3928 25.681 89.1444 25.6085 88.896 25.6085H85.8531V30.3282ZM103.009 20.33L106.952 29.3346L110.989 20.33H117.571L109.964 35.0789V42.3757H103.94V35.0168L96.4572 20.33H103.009ZM136.388 25.6085H130.054V42.3757H123.999V25.6085H117.634V20.33H136.388V25.6085ZM158.093 20.33V42.3757H152.038V33.7437H144.648V42.3757H138.594V20.33H144.648V28.4652H152.038V20.33H158.093ZM171.817 42.562C170.141 42.562 168.619 42.2515 167.253 41.6305C165.887 40.9888 164.707 40.1401 163.713 39.0844C162.74 38.0079 161.985 36.8073 161.447 35.4825C160.929 34.137 160.67 32.7501 160.67 31.3218C160.67 29.8521 160.95 28.4548 161.509 27.13C162.068 25.8052 162.844 24.6253 163.838 23.5903C164.852 22.5345 166.042 21.7065 167.408 21.1062C168.795 20.5059 170.306 20.2058 171.942 20.2058C173.618 20.2058 175.14 20.5266 176.506 21.1683C177.872 21.7893 179.042 22.638 180.015 23.7145C180.988 24.7909 181.733 26.0018 182.25 27.3473C182.789 28.6722 183.058 30.0384 183.058 31.446C183.058 32.895 182.778 34.2819 182.219 35.6067C181.681 36.9315 180.905 38.1218 179.891 39.1775C178.897 40.2125 177.717 41.0405 176.351 41.6615C174.985 42.2618 173.474 42.562 171.817 42.562ZM166.818 31.3839C166.818 32.1291 166.922 32.8536 167.129 33.5574C167.336 34.2405 167.646 34.8615 168.06 35.4204C168.474 35.9586 168.992 36.3933 169.613 36.7245C170.255 37.035 171.01 37.1903 171.88 37.1903C172.749 37.1903 173.505 37.0247 174.146 36.6935C174.788 36.3623 175.305 35.9172 175.699 35.3583C176.113 34.7787 176.413 34.1474 176.599 33.4643C176.806 32.7604 176.91 32.0463 176.91 31.3218C176.91 30.5766 176.806 29.8624 176.599 29.1793C176.392 28.4962 176.082 27.8855 175.668 27.3473C175.254 26.7884 174.726 26.3537 174.084 26.0432C173.442 25.7327 172.697 25.5775 171.849 25.5775C170.979 25.5775 170.224 25.7431 169.582 26.0743C168.961 26.4055 168.443 26.8505 168.029 27.4094C167.615 27.9476 167.305 28.5687 167.098 29.2725C166.912 29.9556 166.818 30.6594 166.818 31.3839ZM191.679 31.5391V42.3757H185.624V20.33H190.344L199.193 31.5391V20.33H205.248V42.3757H200.435L191.679 31.5391Z" fill="white"/>
<path d="M79.8293 65.9225V51.2254H85.8738C86.4948 51.2254 87.0606 51.3565 87.5712 51.6187C88.0956 51.8809 88.551 52.2328 88.9374 52.6744C89.3238 53.1022 89.6205 53.5852 89.8275 54.1234C90.0483 54.6616 90.1587 55.2136 90.1587 55.7794C90.1587 56.5661 89.9793 57.3113 89.6205 58.0151C89.2755 58.7051 88.7925 59.2709 88.1715 59.7125C87.5643 60.1541 86.8398 60.3749 85.998 60.3749H80.885V65.9225H79.8293ZM80.885 59.402H85.9566C86.6052 59.402 87.1641 59.2295 87.6333 58.8845C88.1025 58.5395 88.4613 58.091 88.7097 57.539C88.9581 56.987 89.0823 56.4005 89.0823 55.7794C89.0823 55.1308 88.9305 54.5374 88.6269 53.9992C88.3371 53.4472 87.9438 53.0056 87.447 52.6744C86.964 52.3432 86.4258 52.1776 85.8324 52.1776H80.885V59.402ZM104.071 51.2254V65.9225H103.015V58.8845H93.7418V65.9225H92.6861V51.2254H93.7418V57.9323H103.015V51.2254H104.071ZM107.908 65.9225V51.2254H108.964V65.9225H107.908ZM112.82 65.9225V51.2254H113.876V64.9703H122.653V65.9225H112.82ZM124.848 65.9225V51.2254H125.904V65.9225H124.848ZM129.76 65.9225V51.2254H135.805C136.426 51.2254 136.992 51.3565 137.502 51.6187C138.027 51.8809 138.482 52.2328 138.869 52.6744C139.255 53.1022 139.552 53.5852 139.759 54.1234C139.979 54.6616 140.09 55.2136 140.09 55.7794C140.09 56.5661 139.91 57.3113 139.552 58.0151C139.207 58.7051 138.724 59.2709 138.103 59.7125C137.495 60.1541 136.771 60.3749 135.929 60.3749H130.816V65.9225H129.76ZM130.816 59.402H135.888C136.536 59.402 137.095 59.2295 137.564 58.8845C138.034 58.5395 138.392 58.091 138.641 57.539C138.889 56.987 139.013 56.4005 139.013 55.7794C139.013 55.1308 138.862 54.5374 138.558 53.9992C138.268 53.4472 137.875 53.0056 137.378 52.6744C136.895 52.3432 136.357 52.1776 135.763 52.1776H130.816V59.402ZM142.617 65.9225V51.2254H148.662C149.283 51.2254 149.848 51.3565 150.359 51.6187C150.883 51.8809 151.339 52.2328 151.725 52.6744C152.112 53.1022 152.408 53.5852 152.615 54.1234C152.836 54.6616 152.947 55.2136 152.947 55.7794C152.947 56.5661 152.767 57.3113 152.408 58.0151C152.063 58.7051 151.58 59.2709 150.959 59.7125C150.352 60.1541 149.628 60.3749 148.786 60.3749H143.673V65.9225H142.617ZM143.673 59.402H148.744C149.393 59.402 149.952 59.2295 150.421 58.8845C150.89 58.5395 151.249 58.091 151.498 57.539C151.746 56.987 151.87 56.4005 151.87 55.7794C151.87 55.1308 151.718 54.5374 151.415 53.9992C151.125 53.4472 150.732 53.0056 150.235 52.6744C149.752 52.3432 149.214 52.1776 148.62 52.1776H143.673V59.402ZM155.474 65.9225V51.2254H156.53V65.9225H155.474ZM161.442 53.1919V65.9225H160.386V51.2254H161.256L171.502 64.163V51.2254H172.558V65.9225H171.523L161.442 53.1919ZM186.188 64.9703V65.9225H176.397V51.2254H186.001V52.1776H177.452V57.953H184.925V58.8638H177.452V64.9703H186.188ZM197.459 53.668C197.224 53.4058 196.962 53.1781 196.672 52.9849C196.382 52.7779 196.072 52.6123 195.741 52.4881C195.41 52.3501 195.051 52.2466 194.664 52.1776C194.278 52.1086 193.864 52.0741 193.422 52.0741C191.987 52.0741 190.938 52.3501 190.276 52.9021C189.627 53.4403 189.303 54.1717 189.303 55.0963C189.303 55.7173 189.448 56.2142 189.738 56.5868C190.041 56.9456 190.51 57.2354 191.145 57.4562C191.78 57.677 192.601 57.8909 193.609 58.0979C194.671 58.3187 195.589 58.5809 196.362 58.8845C197.135 59.1743 197.728 59.5745 198.142 60.0851C198.57 60.5957 198.784 61.2857 198.784 62.1551C198.784 62.8037 198.659 63.3764 198.411 63.8732C198.163 64.3562 197.804 64.7564 197.335 65.0738C196.865 65.3912 196.307 65.6327 195.658 65.7983C195.023 65.9639 194.312 66.0467 193.526 66.0467C192.767 66.0467 192.042 65.9639 191.352 65.7983C190.662 65.6327 190.014 65.3912 189.406 65.0738C188.799 64.7564 188.233 64.3493 187.709 63.8525L188.268 63.0038C188.572 63.335 188.91 63.6317 189.282 63.8939C189.669 64.1423 190.083 64.3562 190.524 64.5356C190.98 64.715 191.463 64.8599 191.973 64.9703C192.484 65.0669 193.015 65.1152 193.567 65.1152C194.851 65.1152 195.851 64.8806 196.569 64.4114C197.3 63.9284 197.666 63.2177 197.666 62.2793C197.666 61.6307 197.5 61.1063 197.169 60.7061C196.838 60.3059 196.327 59.9816 195.637 59.7332C194.947 59.471 194.085 59.2295 193.05 59.0087C192.015 58.7879 191.131 58.5395 190.4 58.2635C189.682 57.9875 189.137 57.6149 188.765 57.1457C188.406 56.6765 188.227 56.0417 188.227 55.2412C188.227 54.358 188.44 53.6128 188.868 53.0056C189.31 52.3846 189.924 51.9154 190.711 51.598C191.497 51.2806 192.401 51.1219 193.422 51.1219C194.057 51.1219 194.644 51.184 195.182 51.3082C195.734 51.4324 196.238 51.6256 196.693 51.8878C197.162 52.1362 197.597 52.4536 197.997 52.84L197.459 53.668Z" fill="white"/>
</g>
<defs>
<clipPath id="clip0_393_2">
<rect width="206.508" height="76.4846" fill="white" transform="translate(0.795898 0.785706)"/>
</clipPath>
</defs>
</svg>
