<?xml version="1.0" encoding="UTF-8"?>
<svg id="Layer_2" data-name="Layer 2" xmlns="http://www.w3.org/2000/svg" viewBox="0 0 452.97 135.31">
  <defs>
    <style>
      .cls-1 {
        fill: #fff;
      }

      .cls-2, .cls-3 {
        fill: #76b947;
      }

      .cls-3 {
        font-family: PoetsenOne-Regular, PoetsenOne;
        font-size: 103.3px;
      }

      .cls-4 {
        letter-spacing: -.02em;
      }

      .cls-5 {
        letter-spacing: 0em;
      }

      .cls-6 {
        letter-spacing: 0em;
      }
    </style>
  </defs>
  <g id="Layer_1-2" data-name="Layer 1">
    <text class="cls-3" transform="translate(77.59 114.65)"><tspan class="cls-6" x="0" y="0">w</tspan><tspan x="86.15" y="0">ede</tspan><tspan class="cls-5" x="258.86" y="0">P</tspan><tspan class="cls-4" x="318.98" y="0">a</tspan></text>
    <path class="cls-2" d="M36.42,10.93c0,1.06-.06,2.76-.18,5.09-.13,2.33-.16,3.13-.41,6.32l-19.58.96s-.62.07-1.21-.19c-.58-.26-.52-1.07-.52-1.07l1.53-20.2c.08-.65.24-1.12.49-1.41.24-.29.73-.43,1.47-.43h5.65c4.66,0,7.95.92,9.88,2.76,1.92,1.84,2.88,4.56,2.88,8.17Z"/>
    <g>
      <path class="cls-1" d="M.03,103.95c.31.31,3.01,2.92,10.98,6.65,7.34,3.43,11.6,3.99,12.1,4.04-8.44-2.06-16.25-5.74-23.08-10.69Z"/>
      <path class="cls-2" d="M71.99,44.35c-1.1-3.44-2.82-6.36-5.15-8.77-2.34-2.42-5.38-4.26-9.15-5.53-3.76-1.27-8.26-1.9-13.5-1.9-1.8,0-3.88.06-6.26.18-2.37.13-4.83.27-7.36.43-2.54.17-5.08.31-7.61.43-2.54.13-4.87.19-7,.19-.41,0-.82.14-1.22.43-.41.28-.62.75-.62,1.41,0,1.23-.02,2.37-.06,3.43-.04,1.07-.08,2.23-.12,3.5s-.12,2.74-.25,4.42c-.12,1.68-.26,3.77-.43,6.26-.16,2.5-.39,5.48-.67,8.96-.29,3.48-.64,7.63-1.05,12.46-.11,1.33-.8,8.41-2.21,13.06-2.75,9.02-7.32,17.86-9.33,20.61,0,0,.01,0,.03.03,6.83,4.95,14.64,8.63,23.08,10.69.03.01.05.01.05.01l8.02-22.56c2.46.74,5.44,1.11,8.96,1.11,5.89,0,10.97-1.02,15.22-3.07,4.26-2.04,7.73-4.79,10.43-8.22,2.7-3.44,4.69-7.39,5.96-11.85,1.26-4.46,1.9-9.1,1.9-13.93,0-4.42-.55-8.34-1.66-11.78ZM52.29,62.88c-.32,2.13-.98,4.18-1.96,6.14-.98,1.96-2.35,3.62-4.11,4.97-1.76,1.35-4.07,2.03-6.94,2.03-.98,0-2.06-.06-3.25-.19-1.19-.12-2.39-.34-3.62-.67.41-5.4.74-10.56.98-15.47.25-4.91.45-9.08.62-12.52,1.47-.16,2.86-.3,4.17-.43,1.31-.12,2.49-.18,3.56-.18,4.17,0,7.06.92,8.65,2.76,1.6,1.84,2.39,4.52,2.39,8.04,0,1.56-.16,3.4-.49,5.52Z"/>
    </g>
  </g>
</svg>